# xmcd
#
# Track frame offsets: 
#        150
#        22570
#        46006
#        65394
#        85457
#        107490
#        128868
#        151123
#        171484
#        190306
#        208052
#        230569
#
# Disc length: 3356 seconds
#
# Revision: 0
# Processed by: cddbd v1.5.1PL0 Copyright (c) Steve Scherf et al.
# Submitted via: ExactAudioCopy v0.95a5
#
DISCID=950d1a0c
DTITLE=温兆伦 - 国语大碟全纪录CD1
DYEAR=2004
DGENRE=Pop
TTITLE0=台北的机场
TTITLE1=借口
TTITLE2=异乡梦
TTITLE3=我本善良
TTITLE4=天地情缘
TTITLE5=还能爱我多久
TTITLE6=感觉
TTITLE7=难道真的我能忘记你
TTITLE8=圣诞物语Merry X mas
TTITLE9=可以再等
TTITLE10=为我守候
TTITLE11=爱她一生
EXTD=
EXTT0=
EXTT1=
EXTT2=
EXTT3=
EXTT4=
EXTT5=
EXTT6=
EXTT7=
EXTT8=
EXTT9=
EXTT10=
EXTT11=
PLAYORDER=
